# xmcd
#
# Track frame offsets:
#	150
#	13617
#	28965
#	42144
#	57114
#	70289
#	85688
#	98910
#	114150
#	132758
#	148937
#	166577
#	184625
#
# Disc length: 2596 seconds
#
# Revision: 1
# Processed by: cddbd v1.5.2PL0 Copyright (c) Steve Scherf et al.
# Submitted via: audiograbber 1.83.01
#
DISCID=a30a220d
DTITLE=Joey and Rory - Album Number Two
DYEAR=2010
DGENRE=Country
TTITLE0=Album Number Two
TTITLE1=That's Important To Me
TTITLE2=All You Need Is Me
TTITLE3=Born To Be Your Woman
TTITLE4=Baby I'll Come Back To You
TTITLE5=God Help My Man
TTITLE6=The Horse Nobody Could Ride
TTITLE7=Farm To Fame
TTITLE8=Where Jesus Is
TTITLE9=You Ain't Right
TTITLE10=My Ol' Man
TTITLE11=This Song's For You (featuring Zac Brown Band)
TTITLE12=Buy Our CD (Banus Track)
EXTD=
EXTT0=
EXTT1=
EXTT2=
EXTT3=
EXTT4=
EXTT5=
EXTT6=
EXTT7=
EXTT8=
EXTT9=
EXTT10=
EXTT11=
EXTT12=
PLAYORDER=
